<svg xmlns="http://www.w3.org/2000/svg" xmlns:xlink="http://www.w3.org/1999/xlink" width="559" zoomAndPan="magnify" viewBox="0 0 419.25 297.75" height="325" preserveAspectRatio="xMidYMid meet" version="1.0"><defs><clipPath id="id1"><path d="M 187.832031 175 L 244.046875 175 L 244.046875 190 L 187.832031 190 Z M 187.832031 175 " clip-rule="nonzero"/></clipPath></defs><path fill="rgb(0.779724%, 46.669006%, 74.119568%)" d="M 81.976562 87.183594 L 41.625 87.183594 L 45.183594 127.535156 L 61.800781 132.28125 L 78.414062 127.535156 Z M 81.976562 87.183594 " fill-opacity="1" fill-rule="nonzero"/><path fill="rgb(1.179504%, 60.778809%, 89.7995%)" d="M 61.800781 90.746094 L 61.800781 128.601562 L 75.09375 124.804688 L 78.058594 90.746094 Z M 61.800781 90.746094 " fill-opacity="1" fill-rule="nonzero"/><path fill="rgb(100%, 100%, 100%)" d="M 72.601562 96.679688 L 61.800781 96.679688 L 61.800781 101.425781 L 67.617188 101.425781 L 67.257812 106.171875 L 61.800781 106.171875 L 61.800781 110.917969 L 67.023438 110.917969 L 66.664062 116.261719 L 61.800781 117.921875 L 61.800781 122.90625 L 71.175781 119.820312 L 72.007812 106.171875 Z M 72.601562 96.679688 " fill-opacity="1" fill-rule="nonzero"/><path fill="rgb(93.328857%, 93.328857%, 93.328857%)" d="M 61.800781 96.679688 L 61.800781 101.425781 L 51.238281 101.425781 L 50.882812 96.679688 Z M 56.339844 106.171875 L 56.578125 110.917969 L 61.800781 110.917969 L 61.800781 106.171875 Z M 56.816406 113.292969 L 52.070312 113.292969 L 52.425781 119.820312 L 61.800781 122.90625 L 61.800781 117.921875 L 56.933594 116.261719 Z M 56.816406 113.292969 " fill-opacity="1" fill-rule="nonzero"/><path fill="rgb(81.17981%, 27.449036%, 27.839661%)" d="M 371.132812 154.636719 C 371.058594 154.636719 371.003906 154.65625 370.96875 154.691406 L 364.53125 162.339844 L 363.214844 166.855469 C 362.324219 166.828125 361.402344 166.816406 360.457031 166.816406 C 353.765625 166.816406 348.332031 167.523438 348.332031 168.402344 C 348.332031 170.5 372.582031 170.5 372.582031 168.402344 C 372.582031 167.753906 369.675781 167.203125 365.492188 166.945312 L 366.53125 163.226562 L 372.554688 155.984375 L 372.5625 155.972656 C 372.699219 155.832031 372.433594 155.410156 372.003906 155.042969 C 371.683594 154.765625 371.34375 154.628906 371.132812 154.636719 Z M 362.722656 168.632812 L 362.699219 168.707031 C 362.6875 168.714844 362.6875 168.726562 362.6875 168.734375 C 362.6875 168.867188 363.214844 168.972656 363.851562 168.972656 C 364.492188 168.972656 365.019531 168.867188 365.019531 168.734375 L 365.039062 168.65625 C 365.207031 168.714844 365.300781 168.785156 365.300781 168.863281 C 365.300781 169.074219 364.652344 169.246094 363.84375 169.238281 C 363.054688 169.238281 362.402344 169.078125 362.402344 168.867188 C 362.402344 168.777344 362.53125 168.695312 362.722656 168.632812 Z M 372.445312 169.230469 C 369.238281 170.941406 351.710938 170.953125 348.488281 169.253906 L 349.914062 181.789062 C 350.535156 179.792969 352.097656 177.09375 354.113281 176.273438 C 354.773438 176.003906 355.445312 176.007812 356.074219 176.367188 C 356.617188 176.667969 357.082031 177.296875 357.132812 177.542969 C 357.257812 178.195312 356.921875 178.453125 356.660156 178.453125 C 356.347656 178.453125 356.105469 177.996094 355.949219 177.722656 C 355.519531 176.996094 354.867188 176.964844 354.171875 177.441406 C 353.449219 177.941406 352.820312 178.78125 352.378906 179.511719 C 351.84375 180.390625 351.390625 181.359375 351.121094 182.328125 C 350.960938 182.886719 350.816406 183.785156 351.058594 184.316406 C 351.164062 184.535156 351.320312 184.675781 351.574219 184.675781 C 352.097656 184.675781 352.863281 184.015625 353.230469 183.664062 C 353.699219 183.214844 354.308594 182.515625 354.539062 182.066406 L 355.085938 180.519531 C 355.359375 179.839844 356.125 179.960938 356.125 180.519531 C 356.125 181.539062 355.738281 181.878906 355.078125 183.988281 C 354.46875 185.933594 354.277344 186.566406 354.277344 186.566406 C 354.207031 186.847656 353.921875 187.316406 353.617188 187.316406 C 353.492188 187.316406 353.398438 187.273438 353.347656 187.191406 C 353.242188 187.054688 353.253906 186.667969 353.261719 186.566406 C 353.285156 186.246094 353.921875 184.347656 354.027344 184.046875 C 353.816406 184.269531 353.597656 184.488281 353.359375 184.707031 C 352.789062 185.21875 351.878906 185.886719 351.101562 185.886719 C 350.746094 185.886719 350.515625 185.796875 350.296875 185.644531 L 351.09375 193.597656 C 351.300781 194.097656 355.207031 195.308594 360.34375 195.308594 C 365.496094 195.308594 369.394531 194.089844 369.59375 193.597656 L 370.738281 184.148438 C 370.140625 184.667969 369.449219 185.308594 368.683594 185.628906 C 368.117188 185.859375 366.859375 186.007812 366.859375 185.058594 C 366.859375 184.535156 367.8125 183.578125 368.367188 182.910156 C 368.515625 182.742188 368.859375 182.320312 368.859375 182.101562 C 368.859375 181.8125 368.230469 181.878906 367.632812 182.347656 C 367.296875 182.617188 366.980469 182.980469 366.71875 183.320312 C 366.269531 183.921875 366.027344 184.4375 365.828125 184.867188 C 365.179688 186.285156 365.398438 185.726562 364.875 187.066406 C 364.351562 188.394531 364.4375 188.242188 364.328125 188.460938 C 364.234375 188.652344 364.097656 188.8125 363.910156 188.914062 C 363.710938 189.011719 363.4375 189.003906 363.269531 188.882812 C 363.175781 188.820312 363.132812 188.691406 363.132812 188.511719 C 363.132812 188.421875 363.144531 188.332031 363.164062 188.242188 C 363.324219 187.632812 363.984375 186.4375 364.738281 184.816406 C 364.90625 184.449219 364.84375 184.558594 364.820312 184.585938 C 364.171875 185.1875 363.675781 185.476562 363.3125 185.636719 C 362.703125 185.894531 361.945312 185.894531 361.789062 185.226562 C 361.78125 185.1875 361.78125 185.144531 361.769531 185.105469 C 360.53125 186.023438 359.222656 186.273438 359.675781 184.296875 C 359.191406 185.113281 358.351562 185.785156 357.320312 185.785156 C 356.890625 185.785156 356.578125 185.644531 356.421875 185.277344 C 356.179688 184.726562 356.558594 183.785156 356.902344 182.898438 C 357.082031 182.449219 357.324219 181.90625 357.652344 181.277344 C 357.820312 180.9375 358.089844 180.738281 358.445312 180.828125 C 358.507812 180.847656 358.5625 180.871094 358.617188 180.898438 C 358.886719 181.078125 358.78125 181.347656 358.644531 181.617188 C 358.246094 182.367188 357.902344 182.917969 357.671875 183.695312 C 357.578125 184.023438 357.460938 184.597656 357.828125 184.597656 C 358.078125 184.597656 358.320312 184.515625 358.550781 184.355469 C 359.03125 184.015625 359.421875 183.507812 359.714844 183.007812 C 359.925781 182.648438 360.179688 182.179688 360.304688 181.78125 C 360.355469 181.609375 360.421875 181.449219 360.496094 181.300781 C 360.609375 181.050781 360.765625 180.792969 361.039062 180.792969 C 361.175781 180.792969 361.289062 180.839844 361.375 180.941406 C 361.554688 181.160156 361.515625 181.386719 361.417969 181.628906 C 361.207031 182.1875 360.925781 182.6875 360.695312 183.296875 C 360.558594 183.648438 360.410156 184.09375 360.410156 184.464844 C 360.410156 184.804688 360.796875 184.722656 361.125 184.582031 C 361.375 184.472656 361.625 184.304688 361.839844 184.136719 C 361.964844 183.648438 361.929688 183.753906 364.609375 177.320312 C 364.746094 176.992188 364.996094 176.851562 365.246094 176.851562 C 365.375 176.851562 365.476562 176.894531 365.582031 176.960938 C 365.761719 177.09375 365.761719 177.367188 365.691406 177.578125 C 365.617188 177.769531 365.625 177.710938 365.21875 178.628906 C 364.671875 179.835938 364.316406 180.707031 363.832031 181.816406 C 363.632812 182.277344 363.027344 183.703125 362.921875 184.042969 C 362.859375 184.265625 362.785156 184.625 363.027344 184.625 C 363.59375 184.625 365.050781 183.3125 365.449219 182.925781 C 365.472656 182.894531 365.503906 182.882812 365.546875 182.863281 C 365.609375 182.671875 365.667969 182.496094 365.722656 182.316406 C 365.867188 181.933594 366.007812 181.492188 366.28125 181.183594 C 366.363281 181.082031 366.457031 181.023438 366.5625 181.023438 C 366.855469 181.023438 367 181.144531 367 181.425781 C 367 181.535156 366.929688 181.933594 366.886719 182.042969 C 367.035156 181.894531 367.1875 181.746094 367.355469 181.597656 C 368.929688 180.207031 370.050781 180.917969 370.050781 181.617188 C 370.050781 182.355469 369.117188 183.382812 368.605469 183.953125 C 368.4375 184.144531 368.089844 184.492188 368.082031 184.59375 C 368.082031 184.722656 368.175781 184.777344 368.3125 184.777344 C 368.519531 184.777344 368.984375 184.425781 369.152344 184.304688 C 369.675781 183.914062 370.386719 183.316406 370.890625 182.898438 Z M 351.675781 194.554688 L 353.238281 197.09375 L 353.847656 205.027344 C 353.847656 205.917969 356.816406 206.636719 360.46875 206.636719 C 364.117188 206.636719 367.085938 205.917969 367.085938 205.027344 L 367.570312 197.015625 L 369.046875 194.554688 C 364.890625 196.226562 356 196.285156 351.675781 194.554688 Z M 351.675781 194.554688 " fill-opacity="1" fill-rule="nonzero"/><path fill="rgb(90.19928%, 31.759644%, 0%)" d="M 153.179688 87.261719 L 112.300781 87.261719 L 115.90625 128.144531 L 132.738281 132.953125 L 149.574219 128.144531 Z M 153.179688 87.261719 " fill-opacity="1" fill-rule="nonzero"/><path fill="rgb(100%, 42.749023%, 0%)" d="M 132.738281 90.867188 L 132.738281 129.226562 L 146.207031 125.378906 L 149.214844 90.867188 Z M 132.738281 90.867188 " fill-opacity="1" fill-rule="nonzero"/><path fill="rgb(100%, 100%, 100%)" d="M 132.738281 111.308594 L 132.738281 106.5 L 143.082031 106.5 L 142.238281 120.328125 L 132.738281 123.453125 L 132.738281 118.402344 L 137.667969 116.71875 L 138.03125 111.308594 Z M 143.441406 101.691406 L 143.800781 96.882812 L 132.738281 96.882812 L 132.738281 101.691406 Z M 143.441406 101.691406 " fill-opacity="1" fill-rule="nonzero"/><path fill="rgb(93.328857%, 93.328857%, 93.328857%)" d="M 132.738281 118.402344 L 132.738281 123.453125 L 123.242188 120.328125 L 122.761719 113.714844 L 127.570312 113.714844 L 127.808594 116.71875 Z M 126.847656 101.691406 L 132.738281 101.691406 L 132.738281 96.882812 L 121.796875 96.882812 L 122.640625 111.308594 L 132.738281 111.308594 L 132.738281 106.5 L 127.207031 106.5 Z M 126.847656 101.691406 " fill-opacity="1" fill-rule="nonzero"/><path fill="rgb(100%, 83.918762%, 0%)" d="M 184.910156 88.242188 L 228.757812 88.242188 L 228.757812 132.09375 L 184.910156 132.09375 Z M 184.910156 88.242188 " fill-opacity="1" fill-rule="nonzero"/><path fill="rgb(0%, 0%, 0.389099%)" d="M 213.578125 121.066406 C 214.421875 122.433594 215.339844 123.746094 217.277344 123.746094 C 218.910156 123.746094 219.761719 122.9375 219.761719 121.816406 C 219.761719 120.472656 218.878906 120 217.085938 119.21875 L 216.101562 118.796875 C 213.265625 117.59375 211.378906 116.085938 211.378906 112.902344 C 211.378906 109.964844 213.628906 107.734375 217.136719 107.734375 C 219.640625 107.734375 221.4375 108.597656 222.730469 110.867188 L 219.667969 112.824219 C 218.996094 111.621094 218.269531 111.148438 217.136719 111.148438 C 215.988281 111.148438 215.257812 111.875 215.257812 112.824219 C 215.257812 114 215.988281 114.472656 217.675781 115.199219 L 218.65625 115.621094 C 222 117.042969 223.886719 118.496094 223.886719 121.765625 C 223.886719 125.289062 221.105469 127.21875 217.371094 127.21875 C 213.71875 127.21875 211.644531 125.386719 210.488281 123.117188 Z M 199.46875 121.164062 C 200.082031 122.269531 201.019531 123.117188 202.367188 123.117188 C 203.65625 123.117188 204.398438 122.609375 204.398438 120.628906 L 204.398438 107.730469 L 208.457031 107.730469 L 208.457031 121.253906 C 208.457031 125.355469 206.078125 127.21875 202.605469 127.21875 C 199.464844 127.21875 197.199219 125.09375 196.277344 123.117188 Z M 199.46875 121.164062 " fill-opacity="1" fill-rule="nonzero"/><path fill="rgb(40.388489%, 22.749329%, 71.759033%)" d="M 305.363281 125.300781 C 305.363281 128.664062 302.636719 131.390625 299.273438 131.390625 L 267.605469 131.390625 C 264.242188 131.390625 261.515625 128.664062 261.515625 125.300781 L 261.515625 93.632812 C 261.515625 90.269531 264.242188 87.542969 267.605469 87.542969 L 299.273438 87.542969 C 302.636719 87.542969 305.363281 90.269531 305.363281 93.632812 Z M 305.363281 125.300781 " fill-opacity="1" fill-rule="nonzero"/><path fill="rgb(100%, 100%, 100%)" d="M 294.4375 111.414062 C 293.644531 110.320312 292.5 109.5625 291.027344 109.160156 C 291.027344 109.160156 292.269531 108.710938 293.390625 107.03125 C 294.058594 105.957031 294.402344 104.667969 294.402344 103.15625 C 294.402344 100.539062 293.449219 98.527344 291.550781 97.152344 C 289.652344 95.777344 287.507812 94.851562 283.863281 94.851562 L 272.476562 94.851562 L 272.476562 124.082031 L 285.179688 124.082031 C 288.628906 124.058594 291.222656 123.316406 292.988281 121.890625 C 294.742188 120.441406 295.617188 118.296875 295.617188 115.433594 C 295.617188 113.851562 295.230469 112.511719 294.4375 111.414062 Z M 279.785156 99.722656 C 279.785156 99.722656 284.863281 99.722656 284.960938 99.722656 C 286.8125 99.722656 288.3125 101.21875 288.3125 103.070312 C 288.3125 104.921875 286.8125 106.421875 284.960938 106.421875 C 284.863281 106.421875 279.785156 106.421875 279.785156 106.421875 Z M 285.875 119.210938 L 279.785156 119.210938 L 279.785156 111.902344 L 285.875 111.902344 C 287.898438 111.902344 289.527344 113.535156 289.527344 115.554688 C 289.527344 117.578125 287.898438 119.210938 285.875 119.210938 Z M 285.875 119.210938 " fill-opacity="1" fill-rule="nonzero"/><path fill="rgb(94.119263%, 38.42926%, 57.249451%)" d="M 378.800781 110.226562 C 377.023438 110.238281 375.484375 110.664062 374.191406 111.300781 C 373.722656 110.359375 373.242188 109.53125 373.164062 108.914062 C 373.070312 108.195312 372.960938 107.765625 373.074219 106.910156 C 373.1875 106.050781 373.683594 104.839844 373.675781 104.746094 C 373.667969 104.65625 373.566406 104.222656 372.539062 104.214844 C 371.515625 104.207031 370.636719 104.410156 370.535156 104.679688 C 370.433594 104.953125 370.234375 105.558594 370.113281 106.195312 C 369.933594 107.125 368.066406 110.441406 367.007812 112.171875 C 366.660156 111.496094 366.363281 110.898438 366.304688 110.429688 C 366.210938 109.710938 366.101562 109.28125 366.214844 108.421875 C 366.328125 107.566406 366.824219 106.355469 366.816406 106.261719 C 366.808594 106.171875 366.707031 105.734375 365.679688 105.726562 C 364.65625 105.722656 363.777344 105.925781 363.675781 106.195312 C 363.574219 106.464844 363.460938 107.097656 363.253906 107.710938 C 363.042969 108.320312 360.5625 113.851562 359.910156 115.285156 C 359.578125 116.015625 359.292969 116.601562 359.089844 117.003906 C 359.085938 117 359.085938 117 359.085938 117 C 359.085938 117 359.074219 117.027344 359.054688 117.070312 C 358.878906 117.414062 358.777344 117.601562 358.777344 117.601562 C 358.777344 117.601562 358.777344 117.601562 358.78125 117.609375 C 358.640625 117.859375 358.492188 118.089844 358.421875 118.089844 C 358.371094 118.089844 358.265625 117.425781 358.441406 116.507812 C 358.8125 114.589844 359.699219 111.601562 359.691406 111.496094 C 359.6875 111.441406 359.855469 110.921875 359.113281 110.648438 C 358.386719 110.382812 358.128906 110.824219 358.066406 110.828125 C 358 110.828125 357.953125 110.984375 357.953125 110.984375 C 357.953125 110.984375 358.757812 107.621094 356.417969 107.621094 C 354.953125 107.621094 352.921875 109.222656 351.921875 110.675781 C 351.292969 111.019531 349.941406 111.757812 348.507812 112.542969 C 347.960938 112.847656 347.398438 113.15625 346.863281 113.449219 C 346.828125 113.40625 346.792969 113.367188 346.753906 113.328125 C 343.914062 110.296875 338.664062 108.152344 338.886719 104.078125 C 338.964844 102.597656 339.480469 98.695312 348.976562 93.964844 C 356.753906 90.089844 362.980469 91.15625 364.058594 93.519531 C 365.59375 96.894531 360.730469 103.171875 352.652344 104.078125 C 349.574219 104.421875 347.953125 103.230469 347.550781 102.785156 C 347.125 102.316406 347.0625 102.296875 346.90625 102.386719 C 346.648438 102.527344 346.808594 102.941406 346.90625 103.1875 C 347.144531 103.8125 348.136719 104.925781 349.820312 105.480469 C 351.308594 105.96875 354.921875 106.234375 359.289062 104.546875 C 364.183594 102.652344 368.007812 97.386719 366.882812 92.984375 C 365.742188 88.507812 358.316406 87.035156 351.292969 89.53125 C 347.105469 91.019531 342.578125 93.347656 339.324219 96.394531 C 335.453125 100.011719 334.835938 103.164062 335.089844 104.480469 C 335.996094 109.15625 342.441406 112.203125 345.023438 114.460938 C 344.894531 114.53125 344.777344 114.597656 344.667969 114.65625 C 343.375 115.296875 338.457031 117.871094 337.230469 120.585938 C 335.835938 123.667969 337.449219 125.878906 338.519531 126.175781 C 341.835938 127.101562 345.238281 125.441406 347.066406 122.714844 C 348.894531 119.988281 348.671875 116.4375 347.832031 114.816406 C 347.824219 114.796875 347.8125 114.777344 347.800781 114.757812 C 348.136719 114.558594 348.476562 114.359375 348.8125 114.160156 C 349.472656 113.773438 350.121094 113.410156 350.679688 113.105469 C 350.367188 113.964844 350.136719 114.996094 350.015625 116.488281 C 349.875 118.238281 350.59375 120.5 351.53125 121.386719 C 351.945312 121.78125 352.441406 121.789062 352.757812 121.789062 C 353.847656 121.789062 354.347656 120.878906 354.894531 119.804688 C 355.566406 118.488281 356.164062 116.953125 356.164062 116.953125 C 356.164062 116.953125 355.417969 121.097656 357.457031 121.097656 C 358.203125 121.097656 358.949219 120.132812 359.28125 119.640625 C 359.285156 119.648438 359.285156 119.648438 359.285156 119.648438 C 359.285156 119.648438 359.304688 119.617188 359.339844 119.554688 C 359.417969 119.4375 359.464844 119.359375 359.464844 119.359375 C 359.464844 119.359375 359.464844 119.351562 359.464844 119.339844 C 359.765625 118.820312 360.429688 117.636719 361.421875 115.683594 C 362.707031 113.164062 363.941406 110.003906 363.941406 110.003906 C 363.941406 110.003906 364.054688 110.777344 364.429688 112.054688 C 364.648438 112.804688 365.121094 113.636719 365.492188 114.433594 C 365.191406 114.847656 365.007812 115.085938 365.007812 115.085938 C 365.007812 115.085938 365.011719 115.089844 365.015625 115.097656 C 364.777344 115.414062 364.507812 115.753906 364.230469 116.085938 C 363.214844 117.296875 362.007812 118.675781 361.847656 119.070312 C 361.65625 119.542969 361.699219 119.886719 362.070312 120.164062 C 362.339844 120.367188 362.816406 120.398438 363.316406 120.367188 C 364.230469 120.304688 364.867188 120.078125 365.183594 119.941406 C 365.679688 119.765625 366.253906 119.492188 366.792969 119.09375 C 367.785156 118.363281 368.386719 117.316406 368.328125 115.929688 C 368.296875 115.167969 368.054688 114.410156 367.746094 113.695312 C 367.835938 113.566406 367.925781 113.433594 368.015625 113.304688 C 369.585938 111.011719 370.800781 108.492188 370.800781 108.492188 C 370.800781 108.492188 370.914062 109.265625 371.292969 110.542969 C 371.480469 111.1875 371.855469 111.894531 372.195312 112.585938 C 370.71875 113.785156 369.804688 115.175781 369.488281 116.089844 C 368.902344 117.777344 369.359375 118.542969 370.222656 118.71875 C 370.613281 118.796875 371.164062 118.617188 371.582031 118.441406 C 372.097656 118.269531 372.71875 117.984375 373.296875 117.558594 C 374.292969 116.828125 375.25 115.804688 375.191406 114.417969 C 375.164062 113.785156 374.992188 113.160156 374.761719 112.558594 C 376.011719 112.039062 377.628906 111.75 379.691406 111.988281 C 384.113281 112.507812 384.980469 115.265625 384.816406 116.421875 C 384.648438 117.578125 383.722656 118.214844 383.410156 118.40625 C 383.101562 118.597656 383.007812 118.664062 383.03125 118.804688 C 383.070312 119.011719 383.214844 119.007812 383.476562 118.960938 C 383.839844 118.898438 385.800781 118.023438 385.882812 115.886719 C 385.988281 113.175781 383.394531 110.203125 378.800781 110.226562 Z M 344.714844 121.71875 C 343.25 123.316406 341.203125 123.917969 340.324219 123.410156 C 339.378906 122.863281 339.753906 120.507812 341.550781 118.8125 C 342.644531 117.78125 344.058594 116.828125 344.996094 116.242188 C 345.210938 116.113281 345.523438 115.925781 345.90625 115.695312 C 345.96875 115.660156 346.003906 115.640625 346.003906 115.640625 C 346.078125 115.59375 346.152344 115.550781 346.230469 115.503906 C 346.886719 117.917969 346.25 120.042969 344.714844 121.71875 Z M 355.386719 114.464844 C 354.875 115.707031 353.808594 118.890625 353.15625 118.71875 C 352.597656 118.574219 352.257812 116.15625 353.046875 113.773438 C 353.441406 112.574219 354.289062 111.144531 354.785156 110.589844 C 355.582031 109.695312 356.464844 109.402344 356.679688 109.765625 C 356.949219 110.226562 355.707031 113.683594 355.386719 114.464844 Z M 364.199219 118.671875 C 363.984375 118.785156 363.785156 118.855469 363.695312 118.800781 C 363.625 118.761719 363.785156 118.609375 363.785156 118.609375 C 363.785156 118.609375 364.886719 117.425781 365.320312 116.882812 C 365.574219 116.570312 365.867188 116.195312 366.183594 115.78125 C 366.1875 115.824219 366.1875 115.863281 366.1875 115.90625 C 366.1875 117.324219 364.8125 118.285156 364.199219 118.671875 Z M 370.992188 117.121094 C 370.832031 117.007812 370.859375 116.636719 371.386719 115.480469 C 371.597656 115.027344 372.074219 114.261719 372.898438 113.53125 C 372.992188 113.832031 373.050781 114.121094 373.050781 114.390625 C 373.039062 116.175781 371.765625 116.84375 370.992188 117.121094 Z M 370.992188 117.121094 " fill-opacity="1" fill-rule="nonzero"/><path stroke-linecap="butt" transform="matrix(3.858267, 0.000000000000009396, -0.000000000000009127, 3.747744, 92.302055, 110.203816)" fill="none" stroke-linejoin="miter" d="M -0.00033003 -0.000184331 L 2.334349 -0.000184331 " stroke="rgb(0%, 0%, 0%)" stroke-width="1" stroke-opacity="1" stroke-miterlimit="4"/><path stroke-linecap="butt" transform="matrix(3.858267, 0.000000000000009396, -0.000000000000009127, 3.747744, 163.302152, 110.203816)" fill="none" stroke-linejoin="miter" d="M -0.000355207 -0.000184331 L 2.334323 -0.000184331 " stroke="rgb(0%, 0%, 0%)" stroke-width="1" stroke-opacity="1" stroke-miterlimit="4"/><path stroke-linecap="butt" transform="matrix(3.858267, 0.000000000000009396, -0.000000000000009127, 3.747744, 240.040998, 110.203816)" fill="none" stroke-linejoin="miter" d="M -0.000501582 -0.000184331 L 2.334177 -0.000184331 " stroke="rgb(0%, 0%, 0%)" stroke-width="1" stroke-opacity="1" stroke-miterlimit="4"/><path stroke-linecap="butt" transform="matrix(3.858267, 0.000000000000009396, -0.000000000000009127, 3.747744, 317.61871, 110.203816)" fill="none" stroke-linejoin="miter" d="M -0.000394671 -0.000184331 L 2.334284 -0.000184331 " stroke="rgb(0%, 0%, 0%)" stroke-width="1" stroke-opacity="1" stroke-miterlimit="4"/><path stroke-linecap="butt" transform="matrix(0.000000000000000236, -3.858267, 3.747744, 0.000000000000000229, 361.89497, 148.865202)" fill="none" stroke-linejoin="miter" d="M 0.000497858 -0.000117126 L 2.334164 -0.000117126 " stroke="rgb(0%, 0%, 0%)" stroke-width="1" stroke-opacity="1" stroke-miterlimit="4"/><path fill="rgb(67.449951%, 89.019775%, 100%)" d="M 274.769531 168.097656 L 296.726562 155.800781 L 319.566406 168.097656 L 296.726562 180.394531 Z M 274.769531 168.097656 " fill-opacity="1" fill-rule="nonzero"/><path fill="rgb(67.449951%, 89.019775%, 100%)" d="M 273.890625 168.097656 L 273.890625 194.449219 L 296.726562 207.625 L 296.726562 180.394531 Z M 273.890625 168.097656 " fill-opacity="1" fill-rule="nonzero"/><path fill="rgb(48.239136%, 74.508667%, 92.158508%)" d="M 283.550781 173.367188 L 296.726562 166.339844 L 309.902344 173.367188 L 296.726562 180.394531 Z M 283.550781 173.367188 " fill-opacity="1" fill-rule="nonzero"/><path fill="rgb(67.449951%, 89.019775%, 100%)" d="M 296.726562 207.625 L 320.445312 194.449219 L 320.445312 168.097656 L 296.726562 180.394531 Z M 296.726562 207.625 " fill-opacity="1" fill-rule="nonzero"/><path fill="rgb(48.239136%, 74.508667%, 92.158508%)" d="M 283.550781 173.367188 L 283.550781 189.179688 L 296.726562 196.207031 L 296.726562 180.394531 Z M 283.550781 173.367188 " fill-opacity="1" fill-rule="nonzero"/><path fill="rgb(48.239136%, 74.508667%, 92.158508%)" d="M 296.726562 196.207031 L 309.902344 189.179688 L 309.902344 173.367188 L 296.726562 180.394531 Z M 296.726562 196.207031 " fill-opacity="1" fill-rule="nonzero"/><path fill="rgb(89.019775%, 94.898987%, 100%)" d="M 283.550781 189.179688 L 273.890625 194.449219 L 273.890625 168.097656 L 283.550781 173.367188 Z M 283.550781 189.179688 " fill-opacity="1" fill-rule="nonzero"/><path fill="rgb(55.288696%, 42.349243%, 62.348938%)" d="M 296.726562 181.273438 C 296.585938 181.273438 296.441406 181.238281 296.3125 181.171875 L 283.136719 174.144531 C 282.851562 173.992188 282.671875 173.691406 282.671875 173.367188 C 282.671875 173.042969 282.851562 172.746094 283.136719 172.59375 L 296.3125 165.566406 C 296.574219 165.429688 296.882812 165.429688 297.140625 165.566406 L 310.316406 172.59375 C 310.601562 172.746094 310.78125 173.042969 310.78125 173.367188 C 310.78125 173.691406 310.601562 173.992188 310.316406 174.144531 L 297.140625 181.171875 C 297.011719 181.238281 296.871094 181.273438 296.726562 181.273438 Z M 285.417969 173.367188 L 296.726562 179.398438 L 308.035156 173.367188 L 296.726562 167.335938 Z M 285.417969 173.367188 " fill-opacity="1" fill-rule="nonzero"/><path fill="rgb(55.288696%, 42.349243%, 62.348938%)" d="M 283.550781 176.882812 C 283.066406 176.882812 282.671875 176.488281 282.671875 176.003906 L 282.671875 173.890625 L 273.46875 168.867188 C 273.1875 168.714844 273.011719 168.417969 273.011719 168.09375 C 273.011719 167.773438 273.191406 167.476562 273.472656 167.324219 L 296.3125 155.027344 C 296.738281 154.796875 297.269531 154.957031 297.5 155.382812 C 297.730469 155.808594 297.570312 156.34375 297.144531 156.574219 L 275.734375 168.101562 L 283.972656 172.597656 C 284.253906 172.75 284.429688 173.046875 284.429688 173.367188 L 284.429688 176.003906 C 284.429688 176.488281 284.035156 176.882812 283.550781 176.882812 Z M 283.550781 176.882812 " fill-opacity="1" fill-rule="nonzero"/><path fill="rgb(55.288696%, 42.349243%, 62.348938%)" d="M 283.550781 183.90625 C 283.066406 183.90625 282.671875 183.515625 282.671875 183.03125 L 282.671875 179.515625 C 282.671875 179.03125 283.066406 178.636719 283.550781 178.636719 C 284.035156 178.636719 284.429688 179.03125 284.429688 179.515625 L 284.429688 183.03125 C 284.429688 183.515625 284.035156 183.90625 283.550781 183.90625 Z M 283.550781 183.90625 " fill-opacity="1" fill-rule="nonzero"/><path fill="rgb(55.288696%, 42.349243%, 62.348938%)" d="M 296.726562 197.082031 C 296.585938 197.082031 296.445312 197.050781 296.3125 196.980469 L 283.136719 189.953125 C 282.851562 189.800781 282.671875 189.503906 282.671875 189.179688 L 282.671875 186.542969 C 282.671875 186.058594 283.066406 185.664062 283.550781 185.664062 C 284.035156 185.664062 284.429688 186.058594 284.429688 186.542969 L 284.429688 188.652344 L 295.847656 194.742188 L 295.847656 180.394531 C 295.847656 179.910156 296.242188 179.515625 296.726562 179.515625 C 297.210938 179.515625 297.605469 179.910156 297.605469 180.394531 L 297.605469 196.207031 C 297.605469 196.515625 297.445312 196.800781 297.179688 196.957031 C 297.039062 197.042969 296.882812 197.082031 296.726562 197.082031 Z M 296.726562 197.082031 " fill-opacity="1" fill-rule="nonzero"/><path fill="rgb(52.159119%, 79.60968%, 97.24884%)" d="M 320.445312 194.449219 L 296.726562 206.746094 L 296.726562 196.207031 L 309.902344 189.179688 Z M 320.445312 194.449219 " fill-opacity="1" fill-rule="nonzero"/><path fill="rgb(55.288696%, 42.349243%, 62.348938%)" d="M 296.726562 208.503906 C 296.574219 208.503906 296.417969 208.460938 296.28125 208.382812 C 296.011719 208.222656 295.847656 207.933594 295.847656 207.625 L 295.847656 196.207031 C 295.847656 195.71875 296.242188 195.328125 296.726562 195.328125 C 297.210938 195.328125 297.605469 195.71875 297.605469 196.207031 L 297.605469 206.132812 L 320.015625 193.679688 C 320.441406 193.445312 320.976562 193.597656 321.210938 194.023438 C 321.449219 194.445312 321.292969 194.980469 320.871094 195.214844 L 297.15625 208.390625 C 297.019531 208.464844 296.875 208.503906 296.726562 208.503906 Z M 296.726562 208.503906 " fill-opacity="1" fill-rule="nonzero"/><path fill="rgb(55.288696%, 42.349243%, 62.348938%)" d="M 309.902344 190.058594 C 309.417969 190.058594 309.023438 189.664062 309.023438 189.179688 L 309.023438 173.367188 C 309.023438 173.035156 309.214844 172.730469 309.511719 172.582031 L 318.507812 168.082031 L 297.605469 157.246094 L 297.605469 166.339844 C 297.605469 166.828125 297.210938 167.21875 296.726562 167.21875 C 296.242188 167.21875 295.847656 166.828125 295.847656 166.339844 L 295.847656 155.800781 C 295.847656 155.492188 296.007812 155.207031 296.269531 155.050781 C 296.53125 154.890625 296.859375 154.878906 297.132812 155.019531 L 320.847656 167.316406 C 321.140625 167.46875 321.324219 167.773438 321.324219 168.105469 C 321.320312 168.4375 321.132812 168.738281 320.835938 168.882812 L 310.78125 173.910156 L 310.78125 189.179688 C 310.78125 189.664062 310.386719 190.058594 309.902344 190.058594 Z M 309.902344 190.058594 " fill-opacity="1" fill-rule="nonzero"/><path fill="rgb(55.288696%, 42.349243%, 62.348938%)" d="M 307.390625 192.394531 C 307.078125 192.394531 306.773438 192.226562 306.613281 191.929688 L 305.789062 190.378906 C 305.558594 189.949219 305.722656 189.417969 306.148438 189.191406 C 306.578125 188.960938 307.109375 189.125 307.335938 189.550781 L 308.164062 191.101562 C 308.394531 191.527344 308.230469 192.0625 307.804688 192.289062 C 307.671875 192.359375 307.527344 192.394531 307.390625 192.394531 Z M 307.390625 192.394531 " fill-opacity="1" fill-rule="nonzero"/><path fill="rgb(55.288696%, 42.349243%, 62.348938%)" d="M 303.730469 194.347656 C 303.417969 194.347656 303.113281 194.175781 302.953125 193.882812 L 302.128906 192.328125 C 301.898438 191.902344 302.0625 191.367188 302.488281 191.140625 C 302.917969 190.914062 303.449219 191.074219 303.679688 191.503906 L 304.503906 193.054688 C 304.734375 193.480469 304.570312 194.015625 304.144531 194.242188 C 304.011719 194.3125 303.867188 194.347656 303.730469 194.347656 Z M 303.730469 194.347656 " fill-opacity="1" fill-rule="nonzero"/><path fill="rgb(55.288696%, 42.349243%, 62.348938%)" d="M 300.070312 196.296875 C 299.757812 196.296875 299.453125 196.128906 299.292969 195.832031 L 298.46875 194.28125 C 298.238281 193.855469 298.398438 193.320312 298.828125 193.09375 C 299.257812 192.863281 299.789062 193.027344 300.015625 193.453125 L 300.84375 195.003906 C 301.074219 195.433594 300.910156 195.964844 300.484375 196.191406 C 300.351562 196.261719 300.207031 196.296875 300.070312 196.296875 Z M 300.070312 196.296875 " fill-opacity="1" fill-rule="nonzero"/><path fill="rgb(55.288696%, 42.349243%, 62.348938%)" d="M 320.445312 195.328125 C 320.308594 195.328125 320.175781 195.296875 320.050781 195.234375 L 309.511719 189.964844 C 309.078125 189.746094 308.902344 189.21875 309.117188 188.785156 C 309.335938 188.351562 309.863281 188.179688 310.296875 188.394531 L 319.566406 193.027344 L 319.566406 168.097656 C 319.566406 167.613281 319.960938 167.21875 320.445312 167.21875 C 320.929688 167.21875 321.324219 167.613281 321.324219 168.097656 L 321.324219 194.449219 C 321.324219 194.753906 321.164062 195.035156 320.90625 195.195312 C 320.765625 195.28125 320.605469 195.328125 320.445312 195.328125 Z M 320.445312 195.328125 " fill-opacity="1" fill-rule="nonzero"/><path fill="rgb(55.288696%, 42.349243%, 62.348938%)" d="M 273.890625 195.328125 C 273.734375 195.328125 273.578125 195.285156 273.441406 195.203125 C 273.175781 195.046875 273.011719 194.757812 273.011719 194.449219 L 273.011719 168.097656 C 273.011719 167.613281 273.40625 167.21875 273.890625 167.21875 C 274.375 167.21875 274.769531 167.613281 274.769531 168.097656 L 274.769531 192.96875 L 283.132812 188.40625 C 283.558594 188.175781 284.089844 188.332031 284.324219 188.757812 C 284.554688 189.183594 284.398438 189.71875 283.972656 189.949219 L 274.3125 195.21875 C 274.179688 195.292969 274.035156 195.328125 273.890625 195.328125 Z M 273.890625 195.328125 " fill-opacity="1" fill-rule="nonzero"/><path fill="rgb(55.288696%, 42.349243%, 62.348938%)" d="M 296.726562 208.503906 C 296.578125 208.503906 296.425781 208.464844 296.289062 208.386719 L 273.449219 195.210938 C 273.03125 194.96875 272.886719 194.429688 273.128906 194.007812 C 273.371094 193.589844 273.910156 193.445312 274.328125 193.6875 L 297.167969 206.863281 C 297.585938 207.105469 297.730469 207.644531 297.488281 208.0625 C 297.324219 208.34375 297.03125 208.503906 296.726562 208.503906 Z M 296.726562 208.503906 " fill-opacity="1" fill-rule="nonzero"/><path fill="rgb(21.958923%, 55.688477%, 23.529053%)" d="M 207.980469 175.558594 L 202.230469 178.738281 C 202.015625 178.859375 201.882812 179.078125 201.882812 179.316406 L 201.882812 185.679688 C 201.882812 185.917969 202.015625 186.136719 202.230469 186.253906 L 207.980469 189.4375 C 208.195312 189.554688 208.460938 189.554688 208.675781 189.4375 L 214.421875 186.253906 C 214.636719 186.136719 214.765625 185.917969 214.765625 185.679688 L 214.765625 179.316406 C 214.765625 179.078125 214.636719 178.859375 214.417969 178.738281 L 208.671875 175.558594 C 208.566406 175.5 208.445312 175.472656 208.324219 175.472656 C 208.207031 175.472656 208.085938 175.5 207.976562 175.558594 M 237.546875 181.289062 L 236.589844 181.816406 C 236.554688 181.835938 236.53125 181.875 236.53125 181.914062 L 236.53125 182.976562 C 236.53125 183.015625 236.554688 183.050781 236.589844 183.070312 L 237.546875 183.601562 C 237.582031 183.621094 237.628906 183.621094 237.664062 183.601562 L 238.621094 183.070312 C 238.65625 183.050781 238.679688 183.015625 238.679688 182.976562 L 238.679688 181.914062 C 238.679688 181.875 238.65625 181.835938 238.621094 181.816406 L 237.664062 181.289062 C 237.644531 181.277344 237.625 181.273438 237.605469 181.273438 C 237.585938 181.273438 237.566406 181.277344 237.546875 181.289062 " fill-opacity="1" fill-rule="nonzero"/><path fill="rgb(21.569824%, 27.839661%, 30.979919%)" d="M 229.699219 168.816406 L 226.902344 167.253906 C 226.816406 167.207031 226.707031 167.207031 226.621094 167.257812 C 226.535156 167.308594 226.480469 167.402344 226.480469 167.503906 L 226.480469 176.933594 L 223.898438 175.507812 C 223.792969 175.445312 223.671875 175.417969 223.550781 175.417969 C 223.429688 175.417969 223.3125 175.445312 223.203125 175.507812 L 217.457031 178.6875 C 217.242188 178.804688 217.109375 179.023438 217.109375 179.261719 L 217.109375 185.625 C 217.109375 185.863281 217.242188 186.082031 217.457031 186.199219 L 223.207031 189.382812 C 223.417969 189.5 223.6875 189.5 223.898438 189.382812 L 229.648438 186.199219 C 229.859375 186.082031 229.992188 185.863281 229.992188 185.625 L 229.992188 169.3125 C 229.992188 169.105469 229.878906 168.917969 229.699219 168.816406 Z M 226.320312 184.152344 L 223.710938 185.597656 C 223.613281 185.652344 223.492188 185.652344 223.394531 185.597656 L 220.78125 184.152344 C 220.683594 184.097656 220.621094 183.996094 220.621094 183.890625 L 220.621094 180.996094 C 220.621094 180.890625 220.683594 180.789062 220.78125 180.734375 L 223.394531 179.289062 C 223.441406 179.261719 223.496094 179.25 223.550781 179.25 C 223.605469 179.25 223.660156 179.261719 223.710938 179.289062 L 226.320312 180.734375 C 226.417969 180.789062 226.480469 180.890625 226.480469 180.996094 L 226.480469 183.890625 C 226.480469 183.996094 226.417969 184.097656 226.320312 184.152344 Z M 226.320312 184.152344 " fill-opacity="1" fill-rule="nonzero"/><path fill="rgb(18.03894%, 49.01886%, 19.60907%)" d="M 207.980469 175.558594 L 201.882812 185.679688 C 201.882812 185.917969 202.015625 186.136719 202.230469 186.253906 L 207.980469 189.4375 C 208.195312 189.554688 208.460938 189.554688 208.675781 189.4375 L 214.765625 179.316406 C 214.765625 179.078125 214.636719 178.859375 214.417969 178.738281 L 208.671875 175.558594 C 208.566406 175.5 208.445312 175.472656 208.324219 175.472656 C 208.207031 175.472656 208.085938 175.5 207.976562 175.558594 " fill-opacity="1" fill-rule="nonzero"/><path fill="rgb(29.798889%, 68.629456%, 31.369019%)" d="M 207.980469 175.558594 L 202.230469 178.738281 C 202.015625 178.859375 201.882812 179.078125 201.882812 179.316406 L 207.980469 189.4375 C 208.195312 189.554688 208.460938 189.554688 208.671875 189.4375 L 214.421875 186.253906 C 214.636719 186.136719 214.765625 185.917969 214.765625 185.679688 L 208.671875 175.558594 C 208.566406 175.5 208.445312 175.472656 208.324219 175.472656 C 208.207031 175.472656 208.085938 175.5 207.976562 175.558594 " fill-opacity="1" fill-rule="nonzero"/><g clip-path="url(#id1)"><path fill="rgb(21.569824%, 27.839661%, 30.979919%)" d="M 243.699219 178.6875 L 237.953125 175.507812 C 237.84375 175.445312 237.722656 175.417969 237.605469 175.417969 C 237.484375 175.417969 237.363281 175.445312 237.257812 175.507812 L 231.511719 178.6875 C 231.296875 178.804688 231.164062 179.027344 231.164062 179.273438 L 231.164062 185.613281 C 231.164062 185.855469 231.296875 186.082031 231.511719 186.203125 L 237.257812 189.382812 C 237.476562 189.503906 237.738281 189.503906 237.953125 189.382812 L 240.605469 187.914062 C 240.847656 187.78125 240.84375 187.433594 240.601562 187.300781 L 234.835938 184.152344 C 234.738281 184.097656 234.675781 183.996094 234.675781 183.886719 L 234.675781 180.996094 C 234.675781 180.890625 234.734375 180.789062 234.828125 180.738281 L 237.445312 179.292969 C 237.496094 179.265625 237.546875 179.25 237.605469 179.25 C 237.660156 179.25 237.710938 179.265625 237.761719 179.292969 L 240.378906 180.738281 C 240.472656 180.792969 240.53125 180.890625 240.53125 181 L 240.53125 183.355469 C 240.53125 183.457031 240.585938 183.550781 240.671875 183.601562 C 240.761719 183.648438 240.867188 183.648438 240.957031 183.597656 L 243.765625 181.96875 C 243.9375 181.867188 244.046875 181.679688 244.046875 181.480469 L 244.046875 179.277344 C 244.046875 179.03125 243.914062 178.804688 243.699219 178.6875 Z M 200.367188 178.6875 L 194.621094 175.507812 C 194.511719 175.445312 194.390625 175.417969 194.273438 175.417969 C 194.152344 175.417969 194.03125 175.445312 193.925781 175.507812 L 188.179688 178.6875 C 187.964844 178.804688 187.832031 179.027344 187.832031 179.273438 L 187.832031 188.019531 C 187.832031 188.117188 187.882812 188.210938 187.972656 188.261719 C 188.058594 188.3125 188.167969 188.3125 188.253906 188.261719 L 191.0625 186.628906 C 191.238281 186.527344 191.34375 186.34375 191.34375 186.140625 L 191.34375 180.996094 C 191.34375 180.890625 191.402344 180.789062 191.496094 180.738281 L 194.113281 179.289062 C 194.164062 179.261719 194.214844 179.25 194.273438 179.25 C 194.328125 179.25 194.378906 179.265625 194.429688 179.289062 L 197.046875 180.738281 C 197.140625 180.789062 197.199219 180.890625 197.199219 180.996094 L 197.199219 186.144531 C 197.199219 186.34375 197.304688 186.53125 197.480469 186.632812 L 200.289062 188.261719 C 200.378906 188.3125 200.484375 188.3125 200.574219 188.265625 C 200.660156 188.210938 200.714844 188.117188 200.714844 188.019531 L 200.714844 179.277344 C 200.714844 179.03125 200.578125 178.804688 200.367188 178.6875 Z M 200.367188 178.6875 " fill-opacity="1" fill-rule="nonzero"/></g><path stroke-linecap="butt" transform="matrix(3.858267, 0.000000000000009396, -0.000000000000009127, 3.747744, 254.206389, 181.267821)" fill="none" stroke-linejoin="miter" d="M 0.000166577 0.000456331 L 2.333833 0.000456331 " stroke="rgb(0%, 0%, 0%)" stroke-width="1" stroke-opacity="1" stroke-miterlimit="4"/><path stroke-linecap="butt" transform="matrix(3.858267, 0.000000000000009396, -0.000000000000009127, 3.747744, 168.854437, 181.267821)" fill="none" stroke-linejoin="miter" d="M 0.000267317 0.000456331 L 2.333934 0.000456331 " stroke="rgb(0%, 0%, 0%)" stroke-width="1" stroke-opacity="1" stroke-miterlimit="4"/><path fill="rgb(74.119568%, 74.119568%, 74.119568%)" d="M 134.742188 157.035156 L 109.898438 165.679688 L 113.824219 197.867188 L 134.769531 209.253906 L 155.820312 197.714844 L 159.746094 165.527344 Z M 134.742188 157.035156 " fill-opacity="1" fill-rule="nonzero"/><path fill="rgb(71.759033%, 10.978699%, 10.978699%)" d="M 157.15625 167.152344 L 134.824219 159.566406 L 134.824219 206.515625 L 153.613281 196.21875 Z M 157.15625 167.152344 " fill-opacity="1" fill-rule="nonzero"/><path fill="rgb(86.669922%, 17.248535%, 0%)" d="M 134.753906 159.542969 L 112.488281 167.292969 L 116.035156 196.367188 L 134.765625 206.546875 L 134.824219 206.515625 L 134.824219 159.566406 Z M 134.753906 159.542969 " fill-opacity="1" fill-rule="nonzero"/><path fill="rgb(74.119568%, 74.119568%, 74.119568%)" d="M 134.824219 161.777344 L 134.824219 173.058594 L 145.003906 195.011719 L 150.234375 195.011719 Z M 134.824219 161.777344 " fill-opacity="1" fill-rule="nonzero"/><path fill="rgb(93.328857%, 93.328857%, 93.328857%)" d="M 119.410156 195.011719 L 124.640625 195.011719 L 134.824219 173.058594 L 134.824219 161.777344 Z M 119.410156 195.011719 " fill-opacity="1" fill-rule="nonzero"/><path fill="rgb(74.119568%, 74.119568%, 74.119568%)" d="M 134.824219 183.144531 L 141.941406 183.144531 L 141.941406 187.890625 L 134.824219 187.890625 Z M 134.824219 183.144531 " fill-opacity="1" fill-rule="nonzero"/><path fill="rgb(93.328857%, 93.328857%, 93.328857%)" d="M 127.703125 183.144531 L 134.824219 183.144531 L 134.824219 187.890625 L 127.703125 187.890625 Z M 127.703125 183.144531 " fill-opacity="1" fill-rule="nonzero"/><path stroke-linecap="butt" transform="matrix(3.858267, 0.000000000000009396, -0.000000000000009127, 3.747744, 92.302055, 181.267821)" fill="none" stroke-linejoin="miter" d="M -0.00033003 0.000456331 L 2.334349 0.000456331 " stroke="rgb(0%, 0%, 0%)" stroke-width="1" stroke-opacity="1" stroke-miterlimit="4"/><path fill="rgb(9.799194%, 46.269226%, 82.348633%)" d="M 40.34375 159.929688 L 82.507812 159.929688 L 82.507812 202.089844 L 40.34375 202.089844 Z M 40.34375 159.929688 " fill-opacity="1" fill-rule="nonzero"/><path fill="rgb(100%, 100%, 100%)" d="M 65.511719 178.667969 L 49.980469 178.667969 L 49.980469 182.492188 L 55.550781 182.492188 L 55.550781 199.75 L 59.964844 199.75 L 59.964844 182.492188 L 65.511719 182.492188 Z M 65.511719 178.667969 " fill-opacity="1" fill-rule="nonzero"/><path fill="rgb(100%, 100%, 100%)" d="M 79.21875 183.449219 C 79.21875 183.449219 77.128906 182.054688 74.761719 182.054688 C 72.394531 182.054688 71.542969 183.179688 71.542969 184.382812 C 71.542969 187.480469 80.1875 187.171875 80.1875 193.414062 C 80.1875 203.027344 67.007812 198.761719 67.007812 198.761719 L 67.007812 194.152344 C 67.007812 194.152344 69.527344 196.050781 72.550781 196.050781 C 75.574219 196.050781 75.460938 194.074219 75.460938 193.800781 C 75.460938 190.933594 66.890625 190.933594 66.890625 184.574219 C 66.890625 175.929688 79.375 179.339844 79.375 179.339844 Z M 79.21875 183.449219 " fill-opacity="1" fill-rule="nonzero"/><path stroke-linecap="butt" transform="matrix(3.858267, 0.000000000000009396, -0.000000000000009127, 3.747744, 332.730456, 181.267821)" fill="none" stroke-linejoin="miter" d="M 0.00000328335 0.000456331 L 2.33367 0.000456331 " stroke="rgb(0%, 0%, 0%)" stroke-width="1" stroke-opacity="1" stroke-miterlimit="4"/></svg>